<?xml version="1.0" encoding="utf-8"?>
<!-- Generator: Adobe Illustrator 23.0.1, SVG Export Plug-In . SVG Version: 6.00 Build 0)  -->
<svg version="1.1" id="Layer_1" xmlns="http://www.w3.org/2000/svg" xmlns:xlink="http://www.w3.org/1999/xlink" x="0px" y="0px"
	 viewBox="0 0 126 46.7" style="enable-background:new 0 0 126 46.7;" xml:space="preserve">
<style type="text/css">
	.st0{fill:#FFFFFF;}
	.st1{fill:#D3D3D3;}
	.st2{fill:url(#SVGID_1_);}
</style>
<g>
	<path class="st0" d="M13.6,23.4"/>
	<path class="st1" d="M21.9,43.3l-3.4,3.4l-15-15c-4.6-4.6-4.6-12.1,0-16.8l3.4-3.4l15,15C26.5,31.2,26.5,38.7,21.9,43.3z"/>
	<linearGradient id="SVGID_1_" gradientUnits="userSpaceOnUse" x1="0" y1="22.1654" x2="25.3437" y2="22.1654">
		<stop  offset="0" style="stop-color:#FFFFFF;stop-opacity:0.8"/>
		<stop  offset="1" style="stop-color:#FFFFFF"/>
	</linearGradient>
	<path class="st2" d="M3.5,15c-4.6,4.6-4.6,12.1,0,16.8l3.4,3.4l0,0l9.2,9.2c0,0,0.2,0.2-2.5-2.5c-2.7-2.7-5.4-7.9,0-13.4l8.3-8.3
		c4.6-4.6,4.6-12.1,0-16.8L18.5,0L3.5,15z"/>
	<g>
		<g>
			<path class="st0" d="M32.9,31.1c0,0.8,0.2,1.5,0.5,1.9c0.3,0.4,0.9,0.6,1.8,0.6h1.4v2.2h-1.8c-1.5,0-2.6-0.4-3.3-1.3
				c-0.7-0.9-1-2-1-3.3V11h2.5V31.1z"/>
			<path class="st0" d="M44.4,18.4c2.3,0,4,0.5,5.2,1.5c1.1,1,1.7,2.4,1.7,4.3v11.6h-2.5v-1.6c-0.7,0.7-1.4,1.1-2.1,1.4
				c-0.7,0.3-1.7,0.4-2.8,0.4c-1.2,0-2.1-0.1-2.9-0.3c-0.7-0.2-1.4-0.6-2-1.2c-0.4-0.4-0.8-0.9-1-1.6c-0.2-0.6-0.3-1.3-0.3-1.9
				c0-1.5,0.5-2.7,1.5-3.6c1-0.9,2.5-1.3,4.4-1.3h5.1v-1.6c0-1.3-0.3-2.2-1-2.8c-0.7-0.6-1.8-0.9-3.4-0.9c-1.1,0-2,0.2-2.6,0.5
				c-0.6,0.3-1.2,0.8-1.7,1.5L38.3,21c0.7-1,1.6-1.7,2.5-2C41.8,18.6,43,18.4,44.4,18.4z M44,27.9c-2.6,0-3.9,1-3.9,3
				c0,1,0.3,1.7,0.9,2.2c0.6,0.5,1.6,0.7,3,0.7c0.7,0,1.4-0.1,2-0.2c0.6-0.1,1.2-0.4,1.8-1c0.6-0.6,0.9-1.5,0.9-3v-1.8H44z"/>
			<path class="st0" d="M68.3,35.8h-2.5v-2c-0.7,0.9-1.5,1.5-2.2,1.8C62.8,35.8,61.9,36,61,36c-0.9,0-1.7-0.1-2.4-0.4
				c-0.7-0.3-1.3-0.6-1.8-1.1c-0.4-0.4-0.8-0.9-1-1.5c-0.3-0.6-0.5-1.1-0.6-1.8c-0.2-0.6-0.3-1.3-0.3-2c-0.1-0.7-0.1-1.4-0.1-2.1
				c0-1.4,0.1-2.7,0.4-4c0.3-1.3,0.8-2.4,1.7-3.3c0.5-0.5,1.1-0.8,1.8-1.1c0.7-0.3,1.5-0.4,2.4-0.4c1,0,1.8,0.2,2.6,0.5
				c0.8,0.3,1.5,0.9,2.2,1.8V11h2.5V35.8z M61.5,20.7c-0.9,0-1.7,0.2-2.2,0.6c-0.6,0.4-1,0.9-1.3,1.5c-0.3,0.6-0.5,1.3-0.6,2.1
				c-0.1,0.8-0.1,1.6-0.1,2.4s0,1.6,0.1,2.4c0.1,0.8,0.3,1.5,0.6,2.1c0.3,0.6,0.7,1.1,1.3,1.5c0.6,0.4,1.3,0.6,2.2,0.6
				c0.9,0,1.7-0.2,2.2-0.6c0.6-0.4,1-0.9,1.3-1.5c0.3-0.6,0.5-1.3,0.6-2.1c0.1-0.8,0.1-1.6,0.1-2.4s0-1.6-0.1-2.4
				c-0.1-0.8-0.3-1.5-0.6-2.1c-0.3-0.6-0.8-1.1-1.3-1.5C63.2,20.8,62.4,20.7,61.5,20.7z"/>
			<path class="st0" d="M75.5,13.8h-2.8v-2.8h2.8V13.8z M75.4,35.8h-2.5V18.6h2.5V35.8z"/>
		</g>
	</g>
	<g>
		<g>
			<path class="st0" d="M80.6,18.1v-2.2c0-0.6,0.1-1.3,0.3-1.9c0.2-0.6,0.5-1.2,1-1.7c0.4-0.5,1-0.9,1.6-1.2
				c0.7-0.3,1.5-0.5,2.4-0.5h2.6v3.8h-1.8c-1,0-1.6,0.5-1.6,1.6v1.9h3.3v3.4h-3.3v14.2h-4.5"/>
			<path class="st0" d="M94.7,14.5h-4.6v-3.7h4.6V14.5z M94.7,35.8h-4.5V18.1h4.5V35.8z"/>
			<path class="st0" d="M107,17.4c0.9,0,1.7,0.1,2.4,0.4c0.7,0.2,1.3,0.7,1.9,1.3l-3.4,3.4c-0.3-0.3-0.7-0.6-1-0.8
				c-0.3-0.2-0.8-0.3-1.4-0.3c-0.3,0-0.7,0.1-1,0.2c-0.3,0.1-0.7,0.3-1,0.6c-0.3,0.3-0.5,0.6-0.7,1c-0.2,0.4-0.3,0.9-0.3,1.5v10.9
				H98V17.6h4.4v1.7c0.4-0.5,1.1-1,1.9-1.4C105.1,17.6,106,17.4,107,17.4z"/>
			<path class="st0" d="M118.1,17.4c1.3,0,2.4,0.2,3.4,0.6c1,0.4,1.8,1,2.5,1.8c0.7,0.8,1.2,1.7,1.5,2.8c0.3,1.1,0.5,2.3,0.5,3.5
				v1.9h-11.4c0,1.2,0.3,2.2,1,2.9c0.7,0.8,1.7,1.1,3,1.1c1,0,1.8-0.1,2.4-0.4c0.6-0.3,1.1-0.7,1.7-1.3l2.8,2.7
				c-0.5,0.5-0.9,0.9-1.4,1.2c-0.5,0.4-1,0.7-1.5,0.9c-0.5,0.2-1.1,0.4-1.8,0.5c-0.7,0.1-1.4,0.2-2.2,0.2c-1.1,0-2.1-0.1-3.1-0.4
				c-1-0.3-1.9-0.8-2.7-1.5c-0.8-0.7-1.4-1.7-1.9-2.9c-0.5-1.2-0.7-2.7-0.7-4.5c0-1.5,0.2-2.8,0.6-4c0.4-1.1,0.9-2.1,1.6-2.9
				c0.7-0.8,1.5-1.4,2.5-1.8C115.8,17.6,116.9,17.4,118.1,17.4z M118.1,21.2c-0.8,0-1.4,0.2-1.9,0.5c-0.5,0.4-0.9,0.8-1.1,1.3
				c-0.2,0.3-0.3,0.6-0.3,0.9c0,0.3-0.1,0.6-0.1,1h6.9c0-0.4-0.1-0.7-0.1-1c0-0.3-0.1-0.6-0.3-0.9c-0.3-0.5-0.6-1-1.1-1.3
				C119.5,21.4,118.9,21.2,118.1,21.2z"/>
		</g>
	</g>
</g>
</svg>
