<?xml version="1.0" encoding="utf-8"?>
<!-- Generator: Adobe Illustrator 23.0.1, SVG Export Plug-In . SVG Version: 6.00 Build 0)  -->
<svg version="1.1" id="Layer_1" xmlns="http://www.w3.org/2000/svg" xmlns:xlink="http://www.w3.org/1999/xlink" x="0px" y="0px"
	 viewBox="0 0 568.1 225.8" style="enable-background:new 0 0 568.1 225.8;" xml:space="preserve">
<style type="text/css">
	.st0{fill:#000;}
</style>
<title>world_mark</title>
<polygon class="st0" points="19.8,80.9 0,80.9 0,187.9 71.4,187.9 71.4,169.4 19.8,169.4 "/>
<path class="st0" d="M149.4,103.3c-3.1-1.4-6.4-2.4-9.8-2.9c-4.2-0.6-8.4-0.9-12.6-0.9c-12.3,0-22,3-29,8.9S87.1,122.2,86.5,132
	h20.3c0.3-5.5,2.1-9.8,5.5-12.8s8.6-4.5,15.8-4.5c6.7,0,11.4,1,14.1,3.1c2.7,2,4.1,5.3,4,8.6c0.1,3.3-1.9,6.3-5,7.4
	c-3.4,1.5-8.9,2.7-16.6,3.7c-5.4,0.8-9.9,1.6-13.4,2.3c-3.1,0.6-6.1,1.4-9,2.4c-1.3,0.4-2.5,0.9-3.7,1.5c-1.3,0.6-2.5,1.3-3.7,2.1
	c-3.4,2.1-6.3,5.1-8.3,8.6c-2.1,3.8-3.1,8.1-3,12.5c0,7,2.4,12.6,7.1,16.8s11.8,6.3,21.1,6.3c8.9,0,16.3-1.9,22.1-5.5
	c5.6-3.4,10.1-8.2,13.1-14l2.1,17.3h15.9v-58.2c0.2-5.6-1.1-11.1-3.7-16C159,109.1,155,105.7,149.4,103.3z M146.4,148.9
	c0,4.3-1.2,8.5-3.4,12.2c-2.3,4.1-5.7,7.6-9.7,10c-2.1,1.3-4.4,2.3-6.8,2.9c-2.6,0.7-5.2,1-7.9,1c-4.5,0-7.9-0.9-10.1-2.7
	s-3.4-4.5-3.4-8.1c0-1.8,0.4-3.6,1.3-5.1c0.9-1.6,2.2-2.9,3.8-3.9c2.2-1.4,4.5-2.4,7-3.1c3.9-1,7.8-1.8,11.8-2.3
	c3.5-0.5,6.9-1.3,10.3-2.3c2.5-0.7,4.9-1.8,7.1-3.3L146.4,148.9L146.4,148.9z"/>
<path class="st0" d="M245.4,116.5c-2.3-5.1-6.1-9.4-10.9-12.4c-4.8-2.9-10.7-4.4-17.8-4.4c-6.8-0.1-13.5,1.6-19.4,5
	c-5.7,3.4-10.2,8.5-13,14.5c-1.7,3.4-2.9,7.1-3.6,10.8c-0.8,4.3-1.2,8.7-1.2,13.1v2.1c0,14.5,3.3,25.6,10,33.2s15.5,11.4,26.5,11.4
	c7.7,0,14-1.8,19-5.5c4.9-3.6,8.7-8.6,10.9-14.3l2.1,18h16.4V72.4h-19V116.5z M245.8,145c0,8.5-2.1,15.3-6.4,20.3s-10,7.5-17.3,7.5
	c-6.1,0.2-12-2.4-16-7c-4.2-4.7-6.3-11.6-6.3-20.8v-1.6c0-8.6,2-15.3,6-20.1c4-4.8,9.7-7.2,17.1-7.2c7.1,0,12.7,2.5,16.8,7.5
	c4.1,5,6.1,11.7,6.1,19.9L245.8,145L245.8,145z"/>
<rect x="283.6" y="101.6" class="st0" width="20" height="86.3"/>
<path class="st0" d="M293.8,66.4c-4.3,0-7.6,1-9.8,2.8s-3.3,5.3-3.3,10.1s1,8.3,3,10.2s5.3,2.9,10,2.9c4.4,0,7.7-1,9.8-3.1
	s3.2-5.4,3.2-10c0-4.8-1.1-8.1-3.3-10.1C301.4,67.3,298.1,66.4,293.8,66.4z"/>
<path class="st0" d="M337.5,74.8c-4.6,4.6-6.9,12.4-6.9,23.4v3.5h-15.2v17.1h15.1V188h18.8l0.2-69.2h20.3v-17.1h-20.3v-1
	c-0.1-3.6,0.2-7.1,0.9-10.6c0.4-2.1,1.8-3.9,3.8-4.7c1.1-0.5,2.2-0.8,3.4-0.9c1.6-0.2,3.2-0.3,4.8-0.3h7.5V67.9h-10.2
	C349.5,67.9,342.1,70.2,337.5,74.8z"/>
<path class="st0" d="M393.9,66.4c-4.3,0-7.6,1-9.8,2.8s-3.3,5.3-3.3,10.1s1,8.3,3,10.2s5.3,2.9,10.1,2.9c4.4,0,7.7-1,9.8-3.1
	s3.2-5.4,3.2-10c0-4.8-1.1-8.1-3.3-10.1S398.2,66.4,393.9,66.4z"/>
<rect x="383.7" y="101.6" class="st0" width="20" height="86.3"/>
<path class="st0" d="M450.6,106.1c-4.6,3.5-7.8,8.7-9.5,15.8l-2.5-20.3h-15.9v86.3H442V148c0-6.7,0.7-12,2-16
	c1.2-3.8,3.8-6.8,7.4-8.5c2.1-1,4.3-1.7,6.6-2c3-0.5,6-0.7,9-0.7h8.5v-20h-5.9C461.7,100.9,455.3,102.6,450.6,106.1z"/>
<path class="st0" d="M568,142.9c0-5.4-0.8-10.8-2.4-16c-1.6-5.1-4.1-9.9-7.5-14c-3.6-4.2-8.1-7.5-13.1-9.8c-6-2.5-12.6-3.8-19.1-3.6
	c-9,0-16.8,1.9-23.3,5.5c-6.5,3.6-11.8,9-15.2,15.6c-1.8,3.5-3.2,7.2-4,11c-0.9,4.2-1.4,8.5-1.4,12.8v2.1c0,13.3,3.6,23.9,10.8,31.7
	s18,11.8,32.5,11.8c11.3,0,20.4-2.4,27.4-7.3c7-4.9,12-12.2,14.2-20.4h-21.2c-1.4,3.5-3.8,6.5-7,8.5c-3.2,2-7.4,3-12.6,3
	c-7.1,0-12.8-1.9-17-5.7c-4.2-3.8-6.8-9.2-7.6-16.2h66.6v-9L568,142.9z M501.6,136.6c1.1-6.8,3.8-12.1,8-15.8s9.7-5.6,16.5-5.6
	s12.2,1.9,15.8,5.8s5.8,9.1,6.5,15.7h-46.8L501.6,136.6z"/>
</svg>
