<?xml version="1.0" encoding="utf-8"?>
<!-- Generator: Adobe Illustrator 23.0.1, SVG Export Plug-In . SVG Version: 6.00 Build 0)  -->
<svg version="1.1" id="Layer_1" xmlns="http://www.w3.org/2000/svg" xmlns:xlink="http://www.w3.org/1999/xlink" x="0px" y="0px"
	 viewBox="0 0 769.6 225.7" style="enable-background:new 0 0 769.6 225.7;" xml:space="preserve">
<style type="text/css">
	.st0{fill:#0061FF;}
</style>
<polygon points="221.4,80.9 201.6,80.9 201.6,187.9 273,187.9 273,169.4 221.4,169.4 "/>
<path d="M351,103.3c-2.8-1.3-6.1-2.3-9.8-2.9c-3.7-0.6-7.9-0.9-12.6-0.9c-12.3,0-22,3-29,8.9c-7,6-10.9,13.8-11.5,23.6h20.3
	c0.3-5.5,2.1-9.8,5.5-12.8c3.4-3,8.6-4.5,15.8-4.5c6.7,0,11.4,1,14.1,3.1c2.7,2.1,4,5,4,8.6c0,3.5-1.7,6-5,7.4
	c-3.4,1.5-8.9,2.7-16.6,3.7c-5.4,0.8-9.9,1.6-13.4,2.3c-3.5,0.7-6.5,1.5-9,2.4c-1.2,0.4-2.4,0.9-3.7,1.5c-1.3,0.6-2.5,1.3-3.7,2.1
	c-3.5,2.2-6.3,5.1-8.3,8.6c-2,3.6-3,7.7-3,12.5c0,7,2.4,12.6,7.1,16.8c4.7,4.2,11.8,6.3,21.1,6.3c8.9,0,16.3-1.9,22.1-5.5
	c5.8-3.7,10.2-8.3,13.1-14l2.1,17.3h15.9v-58.2c0-6.2-1.2-11.5-3.7-16C360.6,109.1,356.6,105.7,351,103.3z M348,148.9
	c0,4.1-1.1,8.2-3.4,12.2c-2.3,4.1-5.5,7.4-9.7,10c-2.1,1.3-4.4,2.3-6.8,2.9c-2.5,0.7-5.1,1-7.9,1c-4.5,0-7.9-0.9-10.1-2.7
	c-2.3-1.8-3.4-4.5-3.4-8.1c0-1.9,0.4-3.6,1.3-5.1c0.8-1.5,2.1-2.8,3.8-3.9c2-1.3,4.3-2.3,7-3.1c2.6-0.8,6.6-1.5,11.8-2.3
	c3.9-0.6,7.3-1.4,10.3-2.3c2.9-0.9,5.3-2,7.1-3.3V148.9z"/>
<path d="M447,116.5c-2.5-5.3-6.1-9.4-10.9-12.4c-4.8-2.9-10.7-4.4-17.8-4.4c-7.3,0-13.8,1.7-19.4,5c-5.6,3.3-10,8.2-13,14.5
	c-1.6,3.2-2.8,6.8-3.6,10.8c-0.8,4-1.2,8.4-1.2,13.1v2.1c0,14.5,3.3,25.6,10,33.2c6.7,7.6,15.5,11.4,26.5,11.4c7.7,0,14-1.8,19-5.5
	c5-3.7,8.6-8.4,10.9-14.3l2.1,18H466V72.4H447V116.5z M447.4,145c0,8.5-2.1,15.3-6.4,20.3c-4.3,5-10,7.5-17.3,7.5
	c-6.5,0-11.8-2.3-16-7s-6.3-11.6-6.3-20.8v-1.6c0-8.6,2-15.3,6-20.1c4-4.8,9.7-7.2,17.1-7.2c7.1,0,12.7,2.5,16.8,7.5
	c4.1,5,6.1,11.7,6.1,19.9V145z"/>
<rect x="485.2" y="101.6" width="20" height="86.3"/>
<path d="M495.4,66.4c-4.3,0-7.6,1-9.8,2.8c-2.2,1.9-3.3,5.3-3.3,10.1c0,4.9,1,8.3,3,10.2c2,1.9,5.3,2.9,10,2.9c4.4,0,7.7-1,9.8-3.1
	c2.1-2,3.2-5.4,3.2-10c0-4.8-1.1-8.1-3.3-10.1C503,67.3,499.7,66.4,495.4,66.4z"/>
<path d="M539.1,74.8c-4.6,4.6-6.9,12.4-6.9,23.4v3.5H517v17.1h15.1v69.2h18.8l0.2-69.2h20.3v-17.1h-20.3v-1c0-4.7,0.3-8.2,0.9-10.6
	c0.6-2.3,1.8-3.9,3.8-4.7c0.9-0.4,2-0.7,3.4-0.9c1.4-0.2,3-0.3,4.8-0.3h7.5V67.9h-10.2C551.1,67.9,543.7,70.2,539.1,74.8z"/>
<path d="M595.5,66.4c-4.3,0-7.6,1-9.8,2.8c-2.2,1.9-3.3,5.3-3.3,10.1c0,4.9,1,8.3,3,10.2c2,1.9,5.3,2.9,10.1,2.9
	c4.4,0,7.7-1,9.8-3.1c2.1-2,3.2-5.4,3.2-10c0-4.8-1.1-8.1-3.3-10.1C603,67.3,599.8,66.4,595.5,66.4z"/>
<rect x="585.3" y="101.6" width="20" height="86.3"/>
<path d="M652.2,106.1c-4.6,3.5-7.8,8.7-9.5,15.8l-2.5-20.3h-15.9v86.3h19.3V148c0-6.7,0.7-12,2-16c1.3-3.9,3.8-6.8,7.4-8.5
	c1.8-0.9,4-1.6,6.6-2c2.6-0.5,5.6-0.7,9-0.7h8.5v-20h-5.9C663.3,100.9,656.9,102.6,652.2,106.1z"/>
<path d="M769.6,142.9c0-5.5-0.8-10.8-2.4-16c-1.6-5.2-4.1-9.8-7.5-14c-3.4-4.1-7.8-7.3-13.1-9.8c-5.4-2.4-11.7-3.6-19.1-3.6
	c-9,0-16.8,1.9-23.3,5.5c-6.6,3.7-11.6,8.9-15.2,15.6c-1.8,3.4-3.2,7.1-4,11c-0.9,4-1.4,8.2-1.4,12.8v2.1c0,13.3,3.6,23.9,10.8,31.7
	c7.2,7.9,18,11.8,32.5,11.8c11.3,0,20.4-2.4,27.4-7.3c6.9-4.9,11.7-11.7,14.2-20.4h-21.2c-1.5,3.7-3.9,6.6-7,8.5
	c-3.2,2-7.4,3-12.6,3c-7.1,0-12.8-1.9-17-5.7c-4.3-3.8-6.8-9.2-7.6-16.2h66.6V142.9z M703.2,136.6c1.1-6.8,3.8-12.1,8-15.8
	s9.7-5.6,16.5-5.6c6.9,0,12.2,1.9,15.8,5.8c3.6,3.9,5.8,9.1,6.5,15.7H703.2z"/>
<path class="st0" d="M161.3,109c-1.2-2.8-2.5-5.6-4-8.2c0.4,1.2,0.8,2.4,1.1,3.7c2.2,7.7,3.4,16.2,3.4,25c0,15.6-3.8,30-10.2,41.4
	c3.9-10.8,6.1-23.4,6.1-37c0-14.1-2.4-27.2-6.6-38.3c-0.9-2.3-1.8-4.6-2.9-6.7c0.1,1.3,0.2,2.7,0.2,4.1c0.2,7.6-0.6,15.9-3,23.9
	c-2.9,9.4-6.7,13.7-13.2,20c1.8-3.1,5.9-21.8,6.7-26.7c0.6-3.5,1.9-13.3,0.9-24.1c-0.4-4.4-1.2-9-2.5-13.3c0,0,0-0.1,0-0.1
	c-4.7-14.9-7.7-18.4-15.5-28.3c2.2,7.2,2.8,13.9,2.6,20c-0.2,4.9-0.9,9.3-1.8,13.2c-1.2,5.1-2.7,9.2-3.8,12.2
	c-3,8.2-13.5,23.8-18.2,32.8c-4.6,9-8.7,17.4-11.7,28.1c-4-9.4-0.1-24.7,1.2-28.5c1.3-3.8,15.5-28,17.8-32.5
	c1.2-2.4,3.8-7.3,5.6-14.5c0.9-3.5,1.5-7.5,1.7-12.1c0.2-3.9,0-8.3-0.6-13C111.9,29,102.6,14.4,92.8,0c1.2,11.9-0.5,33.4-10.5,50.2
	C74.7,63.1,55.6,86.7,47.1,97c-0.8,0.8-1.5,1.7-2.2,2.6c0,0.1-0.1,0.1-0.1,0.2c0,0,0,0,0,0c-0.6,0.8-1.2,1.5-1.8,2.3c0,0,0,0,0,0
	c0,0,0,0,0,0s0,0,0,0c-0.3,0.4-0.5,0.7-0.8,1.1c0,0,0,0,0,0c0,0,0,0,0,0c-0.2,0.3-0.5,0.7-0.7,1c0,0,0,0,0,0c0,0,0,0,0,0
	c-0.2,0.3-0.4,0.6-0.6,0.9c0,0,0,0,0,0c-0.1,0.1-0.1,0.2-0.2,0.3c-0.4,0.6-0.8,1.2-1.2,1.8c0,0,0,0,0,0.1c-0.1,0.2-0.3,0.4-0.4,0.6
	c0,0,0,0,0,0.1c0,0,0,0.1-0.1,0.1c-0.8,1.4-1.6,2.7-2.3,4.1c0,0,0,0,0,0.1c-0.1,0.2-0.2,0.4-0.3,0.6c0,0,0,0.1,0,0.1
	c-0.4,0.8-0.7,1.5-1.1,2.3c0,0,0,0,0,0c0,0,0,0,0,0.1c-0.1,0.3-0.2,0.5-0.4,0.8c0,0,0,0,0,0c0,0,0,0.1,0,0.1
	c-0.3,0.7-0.6,1.4-0.9,2.2c0,0.1-0.1,0.1-0.1,0.2c0,0,0,0.1,0,0.1c-0.2,0.6-0.5,1.2-0.7,1.8c-0.5,1.3-0.9,2.6-1.3,3.9c0,0,0,0,0,0.1
	c-0.1,0.2-0.1,0.4-0.2,0.6c-0.4,1.5-0.8,2.9-1.1,4.4c0,0.1,0,0.1,0,0.2c0,0,0,0,0,0c0,0.1,0,0.2-0.1,0.4c0,0,0,0.1,0,0.1
	c0,0.2-0.1,0.5-0.1,0.7c0,0,0,0,0,0c0,0.2-0.1,0.4-0.1,0.6c0,0,0,0,0,0c0,0,0,0.1,0,0.1c0,0.2-0.1,0.5-0.1,0.7
	c-0.1,0.5-0.2,1-0.2,1.5c0,0.1,0,0.1,0,0.2c0,0,0,0,0,0c-0.1,0.9-0.2,1.7-0.3,2.6c0,0.1,0,0.2,0,0.3c0,0,0,0,0,0
	c-0.1,0.6-0.1,1.1-0.1,1.7c0,0,0,0,0,0c0,0.2,0,0.3,0,0.5c-0.1,1.3-0.1,2.7-0.1,4.1c0,23.6,11.9,44.4,30.2,56.9c0,0,0,0,0,0
	c0,0,0,0,0.1,0c2.4,1.6,4.9,3.1,7.4,4.5c9.1,5,16.4,7.6,16.8,7.7c-43.2-3.8-77.2-40.1-77.2-84.3c0-10,1.7-19.6,4.9-28.5
	C4.1,112.2,0,126.5,0,141.8c0,46.4,37.6,84,84,84c29.1,0,54.7-14.8,69.8-37.3c2.4-3.6,4.6-7.4,6.4-11.4c5-10.7,7.7-22.7,7.7-35.3
	C167.9,130.1,165.6,119,161.3,109C161.3,109,161.3,109,161.3,109z"/>
</svg>
