<?xml version="1.0" encoding="utf-8"?>
<!-- Generator: Adobe Illustrator 23.0.1, SVG Export Plug-In . SVG Version: 6.00 Build 0)  -->
<svg version="1.1" id="Layer_1" xmlns="http://www.w3.org/2000/svg" xmlns:xlink="http://www.w3.org/1999/xlink" x="0px" y="0px"
	 viewBox="0 0 96 96" style="enable-background:new 0 0 96 96;" xml:space="preserve">
<g>
	<path fill="#fff" d="M86.8,8h-3c-0.2-4.7-4-8.4-8.7-8.4H8.7C3.9-0.4,0,3.5,0,8.3v66.5c0,4.6,3.5,8.3,8,8.7v3.4c0,5,4.1,9.2,9.2,9.2h69.7
		c5.1,0,9.2-4.1,9.2-9.2V17.1C96,12.1,91.9,8,86.8,8z M91.6,86.8c0,2.6-2.2,4.8-4.8,4.8H17.2c-2.6,0-4.8-2.2-4.8-4.8v-3.3h62.8
		c4.8,0,8.7-3.9,8.7-8.7V12.4h3c2.6,0,4.8,2.2,4.8,4.8V86.8z M4.2,8.3c0-2.5,2-4.6,4.6-4.6h66.5c2.4,0,4.4,1.9,4.6,4.2
		c0,0.1,0,0.2,0,0.3v1.8v2.2v62.4c0,2.5-2,4.6-4.6,4.6H12.4h-2.2H8.7c-0.2,0-0.5,0-0.7-0.1c-2.2-0.3-3.8-2.2-3.8-4.5V8.3z"/>
	<polygon fill="#fff" points="25.2,67.3 42,55.1 58.7,67.3 52.3,47.6 69,35.5 48.3,35.5 42,15.8 35.6,35.5 14.9,35.5 31.6,47.6 	"/>
</g>
</svg>
