<?xml version="1.0" encoding="utf-8"?>
<!-- Generator: Adobe Illustrator 23.0.1, SVG Export Plug-In . SVG Version: 6.00 Build 0)  -->
<svg version="1.1" id="Layer_1" xmlns="http://www.w3.org/2000/svg" xmlns:xlink="http://www.w3.org/1999/xlink" x="0px" y="0px"
	 viewBox="0 0 96 96" style="enable-background:new 0 0 96 96;" xml:space="preserve">
<g>
	<path fill="#fff" d="M48,0C21.5,0,0,21.5,0,48c0,26.5,21.5,48,48,48c26.5,0,48-21.5,48-48C96,21.5,74.5,0,48,0z M48,91.2
		C24.2,91.2,4.8,71.8,4.8,48C4.8,24.2,24.2,4.8,48,4.8c23.8,0,43.2,19.4,43.2,43.2C91.2,71.8,71.8,91.2,48,91.2z"/>
	<path fill="#fff" d="M29.1,40.6c3.2,0,5.8-2.6,5.8-5.7c0-3.2-2.6-5.8-5.8-5.8c-3.2,0-5.7,2.6-5.7,5.8C23.3,38.1,25.9,40.6,29.1,40.6z"/>
	<path fill="#fff" d="M66.9,40.6c3.2,0,5.8-2.6,5.8-5.7c0-3.2-2.6-5.8-5.8-5.8c-3.2,0-5.7,2.6-5.7,5.8C61.2,38.1,63.8,40.6,66.9,40.6z"/>
	<path fill="#fff" d="M25,56.6h-3.8V59c0,12.3,12,22.4,26.8,22.4c14.8,0,26.8-10,26.8-22.4v-2.4h-1H25z"/>
</g>
</svg>
