<svg width="24" height="24" viewBox="0 0 1200 1200" xmlns="http://www.w3.org/2000/svg">
    <title>Arrow</title>
    <g>
        <path d="M545.99,233.872c8.244,4.249,16.622,8.265,24.716,12.792c28.665,16.031,54.177,36.212,75.529,61.103
			c14.161,16.507,27.736,33.714,39.703,51.846c11.214,16.995,20.462,35.363,29.691,53.576
			c14.311,28.239,23.604,58.419,32.508,89.564c9.55-7.69,15.378-17.231,19.232-27.894c11.657-32.254,9.17-64.36-1.755-96.26
			c-0.501-1.473-1.024-2.934-1.517-4.409c-0.05-0.156,0.052-0.365,0.269-1.621c2.593,2.144,4.852,3.96,7.048,5.848
			c2.367,2.033,4.794,4.019,6.994,6.221c35.628,35.708,65.48,75.778,89.75,119.949c22.598,41.129,39.384,84.493,46.458,131.055
			c7.933,52.221,2.871,103.15-18.544,151.862c-13.532,30.78-32.291,58.161-54.945,82.987c-33.833,37.08-73.702,66.387-116.824,91.58
			c-2.118,1.237-4.197,2.541-6.838,3.537c35.971-75.288,40.387-153.418,19.805-232.874
			c-20.58-79.437-62.891-145.281-130.161-195.289c4.889,74.843-11.743,142.362-59.141,200.783
			c3.422-26.169,2.378-51.833-6.575-76.69c-3.402-9.444-8.161-18.401-12.963-29.042c-1.345,2.658-2.003,3.507-2.224,4.459
			c-9.949,43.09-28.517,82.303-53.028,118.929c-11.388,17.021-21.715,34.665-28.932,53.977
			c-11.025,29.502-12.972,59.584-6.657,90.375c4.175,20.36,10.763,39.866,19.497,58.69c0.95,2.048,1.673,4.199,1.521,7.204
			c-10.897-6.579-22.187-12.599-32.616-19.859c-19.976-13.905-40.118-27.712-58.996-43.03
			c-26.356-21.385-48.563-46.582-64.438-77.019c-18.199-34.892-23.151-71.898-19.675-110.647
			c3.344-37.253,14.732-71.961,30.826-105.478c14.929-31.086,29.468-62.37,43.579-93.834c8.99-20.037,14.298-41.231,16.424-63.151
			c0.089-0.894,0.269-1.775,0.616-4.017c22.042,37.331,27.74,77.328,29.064,118.445c0.553,0.093,1.107,0.187,1.658,0.28
			c4.053-5.004,8.185-9.947,12.147-15.022c27.986-35.845,54.196-72.897,76.117-112.83c21.402-38.989,38.868-79.55,47.298-123.46
			c4.908-25.564,7.449-51.362,3.216-77.377c-0.282-1.716-0.128-3.504-0.178-5.258C544.428,233.872,545.209,233.872,545.99,233.872z" fill="currentColor" fill-rule="evenodd"/>
    </g>
</svg>
