<?xml version="1.0" encoding="utf-8"?>
<!-- Generator: Adobe Illustrator 23.0.1, SVG Export Plug-In . SVG Version: 6.00 Build 0)  -->
<svg version="1.1" id="Layer_1" xmlns="http://www.w3.org/2000/svg" xmlns:xlink="http://www.w3.org/1999/xlink" x="0px" y="0px"
	 viewBox="0 0 96 96" style="enable-background:new 0 0 96 96;" xml:space="preserve">
<path fill="#fff" d="M48,96c-20.5,0-37.2-15.9-37.2-35.5c0-7.6,2.5-14.8,7.2-20.9l2.5-3.2l1.8,3.6c2.6,5.3,6.2,10,10.5,13.7
	c-0.8-3.3-1.2-6.8-1.2-10.2c0-5.1,0.9-10.1,2.5-14.9C37.7,18.3,44.9,9.7,54.4,4.3l6-3.4L58,7.4c-1.8,4.7-2.7,9.6-2.7,14.7
	c0,1.8,0.1,3.7,0.4,5.5c0.8,6.1,2.9,11.9,6.2,17C62.1,40.2,63,36,64.7,32l3-7.2l1.8,7.5c0.4,1.9,3,4.7,5.4,7.5
	c4.3,4.8,9.5,10.7,10.2,17.6c0.1,1,0.1,2,0.1,3.1c0,1.2-0.1,2.4-0.2,3.5c-0.4,4.4-1.7,8.6-3.8,12.6c-2.2,4.2-5.2,7.8-9,10.9
	C65.5,93,56.9,96,48,96z M19.7,45.9c-2.6,4.4-3.9,9.4-3.9,14.6C15.8,77.3,30.2,91,48,91c7.7,0,15.2-2.6,21-7.4
	c3.2-2.6,5.8-5.8,7.7-9.4c1.8-3.4,2.9-7,3.3-10.7c0.1-1,0.2-1.9,0.2-3c0-0.9,0-1.8-0.1-2.6c-0.5-5.3-5-10.3-8.9-14.8
	c-1.3-1.4-2.5-2.8-3.5-4.1c-0.6,2.4-0.8,4.9-0.8,7.5c0,1.8,0.1,3.6,0.4,5.4v0c0.4,2.4-2.6,3.9-4.3,2.1l0,0
	C56.2,46.9,52,38,50.7,28.2c-0.3-2-0.4-4.1-0.4-6.1c0-3.3,0.3-6.5,1-9.6c-5.7,4.6-10,10.8-12.5,17.8c-1.5,4.3-2.3,8.7-2.3,13.2
	c0,5.4,1.1,10.7,3.2,15.7l0,0c0.9,2.2-1.5,4.4-3.6,3.1l0,0C29.4,58.4,23.8,52.7,19.7,45.9z"/>
</svg>
