<?xml version="1.0" encoding="utf-8"?>
<!-- Generator: Adobe Illustrator 23.0.1, SVG Export Plug-In . SVG Version: 6.00 Build 0)  -->
<svg version="1.1" id="Layer_1" xmlns="http://www.w3.org/2000/svg" xmlns:xlink="http://www.w3.org/1999/xlink" x="0px" y="0px"
	 viewBox="0 0 931.2 219.8" style="enable-background:new 0 0 931.2 219.8;" xml:space="preserve">
<style type="text/css">
	.st0{fill:#2A337A;}
</style>
<g>
	<path d="M700.7,51.3c-11.7-0.4-17.7,5.4-17.4,16.9c0.4,12.6,4.4,16.7,17.2,16.9c10.4,0.1,17.4-3.4,17.5-16.8
		C718,54.2,710.9,51.7,700.7,51.3z M570.6,51.3c-11.7-0.4-17.6,5.5-17.3,17c0.4,12.6,4.4,16.4,17.3,16.9c11.7,0.4,17.4-5.6,17.4-17
		C588,54.3,580.9,51.7,570.6,51.3z M686.9,98.6V204h26.2V98.6H686.9z M557,98.6V204h26.2V98.6H557z M777.9,101.4
		c-9.6,4.3-14.4,12.8-19,21.6c-1.1-8.2-2.1-16.3-3.2-24.6h-21.2v105.4h25.9c0-2,0-3.7,0-5.4c0-14.7-0.2-29.5,0.2-44.2
		c0.1-5,1.3-10,2.6-14.8c1.7-6.3,6-10.8,12.3-12.6c5-1.4,10.1-2.3,15.2-2.7c5.4-0.5,10.9-0.1,16.3-0.1V97.4
		C796.9,97.1,787.1,97.3,777.9,101.4z M207,179.5v-106h-26.1v130.3h98.9v-24.4H207z M658.5,76h14V53.6c-8.8,0.4-17.2,0.8-25.5,1.3
		c-15.8,0.9-24.9,8.9-27.5,24.5c-1,6.1-1.3,12.4-1.9,19.1h-21.9v22.9h22.5v81.7h25.2v-81.9h28.9V98h-28.8c0-2.6,0-4.8,0-6.9
		C643.5,79.4,646.9,76,658.5,76z M404.3,129.1c-0.5-14.9-8.9-25.3-23.5-29.5c-18.5-5.4-37.2-5.8-55.6,0
		c-17.6,5.5-28.3,18.9-29.2,35.3h26.5c1.2-7.1,4.1-13.3,11.3-16c12.3-4.6,24.9-4.8,37.3-0.6c6,2,8.9,6.8,8.5,12.3
		c-0.4,4.7-3.4,8-10,9.1c-11.8,1.9-23.6,3.2-35.4,4.7c-9.6,1.3-19,3-27.5,8.1c-11.6,6.9-15.3,17.4-13.7,30.2
		c1.4,11.6,8.8,18.2,19.3,21.5c8.8,2.7,17.9,3.3,27.2,2.1c16.3-2,29.9-8.3,39-22.6c0.4-0.6,0.9-1.1,2.2-2.5c1,8,2,14.9,2.9,21.9
		h20.9C404.5,178.2,405.1,153.6,404.3,129.1z M367.8,177.6c-11.3,9-24.3,11-38.1,8.1c-4.9-1-8.2-4.2-8.8-9.5
		c-0.6-5.2,1.1-9.9,6.1-11.8c6.7-2.4,13.7-4.2,20.7-5.3c10.7-1.7,21.6-1.8,31.8-7.7C380.8,163,375.9,171.1,367.8,177.6z
		 M904.4,172.9c-1.9,0.1-3.9,1.6-5.6,2.7c-3.8,2.4-7.2,6-11.4,7.3c-11.1,3.4-22.4,3.2-33.3-0.8c-9.6-3.5-15-10.6-16.7-21.3h93.9
		c-0.3-6.6-0.4-12.7-1-18.8c-2.1-20.6-12.6-35.2-31.9-42.8c-12.2-4.8-25-5.6-37.9-3.7c-16.1,2.4-29.6,9.3-39.2,23
		c-8.8,12.7-10.2,27.2-8.9,41.9c1.8,20.4,11.3,35.5,31.5,42.2c18.7,6.2,37.7,5.9,56.3-0.6c14-4.9,23.8-14.6,29.2-29.2
		C920.5,172.8,912.4,172.6,904.4,172.9z M853.4,119.6c11.6-5.4,23.8-5.7,35.7-1c9.5,3.7,13.7,11.6,15.3,21.8H838
		C839.8,130.8,844.7,123.6,853.4,119.6z M510.5,63.5v52.4c-1.3-1.4-2-1.9-2.5-2.6c-6-8.6-14-14.3-24.3-15.9
		c-7-1.1-14.3-1.5-21.4-0.9c-18.1,1.6-31.3,10.9-38.4,27.8c-6.1,14.3-6,29.4-3.1,44.3c3.2,16.5,12.2,28.7,28.3,34.6
		c9.3,3.5,18.9,4.4,28.9,2.9c13.4-2,24-7.7,31-19.6c0.6-1,1.3-2,2.7-4c1,7.9,1.8,14.6,2.6,21.4h21.7V63.5H510.5z M507.8,168.9
		c-4.7,10.4-14.9,15.1-29.8,15.6c-6.6-0.2-8.5-0.9-12.6-2c-12.4-3.6-18-12.8-19-24.9c-0.5-6-0.3-12.4,1-18.3
		c2.4-11.5,9.8-18.6,21.6-20.9c11.8-2.4,22-1.8,31.4,5.8c2,1.6,4,3.5,5.3,5.7C513.5,142.4,513.1,157.4,507.8,168.9z"/>
	<path d="M510.5,63.5v52.4c-1.3-1.4-2-1.9-2.5-2.6c-6-8.6-14-14.3-24.3-15.9c-7-1.1-14.3-1.5-21.4-0.9
		c-18.1,1.6-31.3,10.9-38.4,27.8c-6.1,14.3-6,29.4-3.1,44.3c3.2,16.5,12.2,28.7,28.3,34.6c9.3,3.5,18.9,4.4,28.9,2.9
		c13.4-2,24-7.7,31-19.6c0.6-1,1.3-2,2.7-4c1,7.9,1.8,14.6,2.6,21.4h21.7V63.5H510.5z M507.8,168.9c-4.7,10.4-14.9,15.1-29.8,15.6
		c-6.6-0.2-8.5-0.9-12.6-2c-12.4-3.6-18-12.8-19-24.9c-0.5-6-0.3-12.4,1-18.3c2.4-11.5,9.8-18.6,21.6-20.9c11.8-2.4,22-1.8,31.4,5.8
		c2,1.6,4,3.5,5.3,5.7C513.5,142.4,513.1,157.4,507.8,168.9z"/>
	<path d="M904.4,172.9c-1.9,0.1-3.9,1.6-5.6,2.7c-3.8,2.4-7.2,6-11.4,7.3c-11.1,3.4-22.4,3.2-33.3-0.8c-9.6-3.5-15-10.6-16.7-21.3
		h93.9c-0.3-6.6-0.4-12.7-1-18.8c-2.1-20.6-12.6-35.2-31.9-42.8c-12.2-4.8-25-5.6-37.9-3.7c-16.1,2.4-29.6,9.3-39.2,23
		c-8.8,12.7-10.2,27.2-8.9,41.9c1.8,20.4,11.3,35.5,31.5,42.2c18.7,6.2,37.7,5.9,56.3-0.6c14-4.9,23.8-14.6,29.2-29.2
		C920.5,172.8,912.4,172.6,904.4,172.9z M853.4,119.6c11.6-5.4,23.8-5.7,35.7-1c9.5,3.7,13.7,11.6,15.3,21.8H838
		C839.8,130.8,844.7,123.6,853.4,119.6z"/>
	<path d="M404.3,129.1c-0.5-14.9-8.9-25.3-23.5-29.5c-18.5-5.4-37.2-5.8-55.6,0c-17.6,5.5-28.3,18.9-29.2,35.3h26.5
		c1.2-7.1,4.1-13.3,11.3-16c12.3-4.6,24.9-4.8,37.3-0.6c6,2,8.9,6.8,8.5,12.3c-0.4,4.7-3.4,8-10,9.1c-11.8,1.9-23.6,3.2-35.4,4.7
		c-9.6,1.3-19,3-27.5,8.1c-11.6,6.9-15.3,17.4-13.7,30.2c1.4,11.6,8.8,18.2,19.3,21.5c8.8,2.7,17.9,3.3,27.2,2.1
		c16.3-2,29.9-8.3,39-22.6c0.4-0.6,0.9-1.1,2.2-2.5c1,8,2,14.9,2.9,21.9h20.9C404.5,178.2,405.1,153.6,404.3,129.1z M367.8,177.6
		c-11.3,9-24.3,11-38.1,8.1c-4.9-1-8.2-4.2-8.8-9.5c-0.6-5.2,1.1-9.9,6.1-11.8c6.7-2.4,13.7-4.2,20.7-5.3
		c10.7-1.7,21.6-1.8,31.8-7.7C380.8,163,375.9,171.1,367.8,177.6z"/>
	<path d="M643.2,203c-8.9,0-16.9,0-25.2,0c0-27.2,0-54.2,0-81.7c-7.7,0-15,0-22.5,0c0-7.8,0-15.1,0-22.9c7.2,0,14.5,0,21.9,0
		c0.7-6.7,0.9-12.9,1.9-19.1c2.6-15.6,11.8-23.6,27.6-24.5c8.4-0.5,16.8-0.9,25.5-1.3c0,7.7,0,14.7,0,22.4c-4.6,0-9.3,0-14,0
		c-11.6,0-15,3.4-15.1,15.1c0,2.1,0,4.3,0,6.9c9.6,0,19,0,28.8,0c0,7.9,0,15.3,0,23.1c-9.6,0-18.9,0-28.9,0
		C643.2,148.5,643.2,175.6,643.2,203z"/>
	<path d="M207,179.5c24.8,0,48.6,0,72.8,0c0,8.3,0,16.2,0,24.4c-33,0-65.8,0-98.9,0c0-43.3,0-86.7,0-130.4c8.5,0,17,0,26.1,0
		C207,108.6,207,143.7,207,179.5z"/>
	<path d="M734.5,98.4c7.2,0,14.1,0,21.2,0c1.1,8.3,2.1,16.5,3.2,24.6c4.6-8.8,9.4-17.4,19-21.6c9.2-4.1,18.9-4.4,29.1-4
		c0,8.8,0,17.3,0,26.6c-5.4,0-10.9-0.4-16.3,0.1c-5.1,0.4-10.3,1.3-15.2,2.7c-6.3,1.8-10.6,6.2-12.3,12.6c-1.3,4.8-2.5,9.9-2.6,14.8
		c-0.4,14.7-0.2,29.5-0.2,44.2c0,1.7,0,3.3,0,5.4c-8.7,0-17,0-25.8,0C734.5,168.9,734.5,133.9,734.5,98.4z"/>
	<path d="M583.2,204c-8.9,0-17.5,0-26.2,0c0-35.1,0-70.1,0-105.4c8.6,0,17.2,0,26.2,0C583.2,133.5,583.2,168.6,583.2,204z"/>
	<path d="M713.2,204c-8.9,0-17.5,0-26.2,0c0-35.2,0-70.1,0-105.4c8.6,0,17.2,0,26.2,0C713.2,133.5,713.2,168.6,713.2,204z"/>
	<path d="M588.1,68.2c0,11.4-5.8,17.4-17.4,17c-12.9-0.5-16.9-4.3-17.3-16.9c-0.3-11.5,5.6-17.4,17.3-16.9
		C580.9,51.7,588,54.3,588.1,68.2z"/>
	<path d="M718.1,68.2c-0.1,13.5-7.1,17-17.5,16.8c-12.9-0.2-16.9-4.2-17.2-16.9c-0.3-11.5,5.6-17.3,17.4-16.9
		C710.9,51.7,718,54.2,718.1,68.2z"/>
	<g>
		<path class="st0" d="M155.1,141.9c-0.3-9.7-3.1-18.8-8.3-27c-1.9-2.9-4.1-5.7-6.1-8.5c-0.1,0.1-0.2,0.1-0.3,0.2
			c2.4,6.5,4.1,13.1,4.2,20c0,1.7,0,3.3-0.2,4.9c-0.4,5.2-1.8,10.1-4.1,14.9c-0.1-0.3,0-0.6,0-0.9c0.2-2.5,0.6-5,0.6-7.5
			c0-6.6-1.2-13-3.1-19.3c-1.6-5.1-3.5-10.1-5.8-14.8c-3.3-7-7.3-13.7-12-20.1c-11.8-16.1-19.8-33.8-22-53.8c-0.9-8-0.7-16,0.6-23.9
			c0.3-2,0.7-4,1.1-6.2c-14.3,11.7-26.6,25-37,40.2l-1.8,2.8c-0.5,0.8-1,1.6-1.5,2.4c-5.3,8.5-9.5,17.5-12.3,27.1
			c-0.6,2.2-1.2,4.4-1.7,6.6c-1.3,5.8-1.9,11.7-1.7,17.7c0.2,4.6,0.6,9.2,1.8,13.6c1.5,5.3,4.2,10.1,7.1,14.7
			c6.4,10.1,14.5,18.7,23.6,26.3c5.4,4.5,11.2,8.7,16.8,13.1c6.5,5.1,12.5,10.8,17.2,17.8c3,4.6,5.3,9.5,5.9,15.1c0.2,2,0,4,0,6.1
			c0.5-0.2,0.8-0.4,1.1-0.5c2.5-1.4,4.9-2.9,7.2-4.5c0,0,0,0,0,0c9.8-6.9,17.6-15.9,23.4-26.8C152.9,162.3,155.5,152.5,155.1,141.9z
			"/>
		<path class="st0" d="M101,192.7c-4-6.6-9.5-12-15.5-16.8c-5.6-4.4-11.4-8.6-16.9-13.1c-9.2-7.5-17.4-16-24.3-25.7
			C36,125.3,31.8,112.4,32.7,98c0.3-4.5,0.8-8.9,1.8-13.2c0.8-3.3,1.8-6.6,3.1-9.8c0.1-0.3,0.7-1.6,0.8-1.9
			c-0.4,0.5-1.1,1.2-1.3,1.4c-2.2,2.3-4.5,4.7-6.6,7.1c-7.9,8.8-15,18.1-20.5,28.5C4,120.2,0.4,131.9,0,144.5c0,0.1,0,0.3,0,0.4v4.2
			c0,0.2,0,0.3,0.1,0.5c1.5,39,33.6,70.3,73,70.3c8.4,0,16.5-1.4,24-4.1c2.4-0.7,4.7-1.6,7-2.6c0.3-0.1,0.6-0.4,0.8-0.6c0,0,0,0,0,0
			c0.1-0.2,0.2-0.3,0.2-0.5c0.2-2.4,0.5-4.8,0.3-7.1C105.1,200.4,103.2,196.5,101,192.7z"/>
	</g>
</g>
</svg>
