<?xml version="1.0" encoding="utf-8"?>
<!-- Generator: Adobe Illustrator 23.0.1, SVG Export Plug-In . SVG Version: 6.00 Build 0)  -->
<svg version="1.1" id="Layer_1" xmlns="http://www.w3.org/2000/svg" xmlns:xlink="http://www.w3.org/1999/xlink" x="0px" y="0px"
	 viewBox="0 0 167.9 225.8" style="enable-background:new 0 0 167.9 225.8;" xml:space="preserve">
<style type="text/css">
	.st0{fill:#ffffff;}
</style>
<title>glymp</title>
<path class="st0" d="M161.3,109c-1.2-2.8-2.5-5.5-4-8.2c0.4,1.2,0.8,2.4,1.1,3.7c2.3,8.1,3.4,16.5,3.4,25c0,15.6-3.8,30-10.2,41.4
	c4.1-11.9,6.2-24.4,6.1-37c0.1-13.1-2.1-26-6.6-38.3c-0.8-2.3-1.8-4.5-2.9-6.7c0.1,1.3,0.2,2.7,0.2,4.1c0.3,8.1-0.8,16.1-3,23.9
	c-2.9,9.4-6.7,13.7-13.2,20c1.8-3.1,5.9-21.8,6.7-26.7c1.3-8,1.6-16.1,0.9-24.1c-0.4-4.5-1.2-9-2.5-13.3v-0.1
	c-4.7-14.9-7.7-18.4-15.5-28.3c2,6.5,2.9,13.2,2.6,20c-0.2,4.4-0.8,8.9-1.8,13.2c-1,4.1-2.3,8.2-3.8,12.2
	c-3,8.2-13.5,23.8-18.2,32.8s-8.7,17.4-11.7,28.1c-4-9.4-0.1-24.7,1.2-28.5s15.5-28,17.8-32.5c2.4-4.6,4.3-9.5,5.6-14.5
	c1-4,1.6-8,1.7-12.1c0.2-4.3,0-8.7-0.6-13C111.9,29,102.6,14.4,92.8,0c1.2,11.9-0.5,33.4-10.5,50.2C74.7,63.1,55.6,86.7,47.1,97
	c-0.8,0.8-1.5,1.7-2.2,2.6c0,0.1-0.1,0.1-0.1,0.2l0,0c-0.6,0.8-1.2,1.5-1.8,2.3l0,0c-0.3,0.4-0.5,0.7-0.8,1.1l0,0
	c-0.2,0.3-0.5,0.7-0.7,1l0,0l-0.6,0.9l0,0c-0.1,0.1-0.1,0.2-0.2,0.3l-1.2,1.8v0.1c-0.1,0.2-0.3,0.4-0.4,0.6v0.1c0,0.1,0,0.1-0.1,0.1
	c-0.8,1.4-1.6,2.7-2.3,4.1v0.1l-0.3,0.6v0.1c-0.4,0.8-0.7,1.5-1.1,2.3l0,0v0.1c-0.1,0.3-0.2,0.6-0.4,0.8l0,0v0.1
	c-0.3,0.7-0.6,1.4-0.9,2.2c0,0.1-0.1,0.1-0.1,0.2v0.1c-0.2,0.6-0.5,1.2-0.7,1.8c-0.5,1.3-0.9,2.6-1.3,3.9v0.1
	c-0.1,0.2-0.1,0.4-0.2,0.6c-0.4,1.5-0.8,2.9-1.1,4.4v0.2l0,0c0,0.1,0,0.3-0.1,0.4v0.1c0,0.2-0.1,0.5-0.1,0.7l0,0
	c0,0.2-0.1,0.4-0.1,0.6l0,0v0.1c0,0.2-0.1,0.5-0.1,0.7c-0.1,0.5-0.2,1-0.2,1.5v0.2l0,0c-0.1,0.9-0.2,1.7-0.3,2.6v0.3l0,0
	c-0.1,0.6-0.1,1.1-0.1,1.7l0,0v0.5c-0.1,1.3-0.1,2.7-0.1,4.1c0,22.8,11.3,44.1,30.2,56.9h0.1c2.4,1.6,4.9,3.1,7.4,4.5
	c5.4,3,11,5.6,16.8,7.7c-46.6-4.2-81-45.3-76.9-91.9c0.6-7.1,2.2-14.1,4.6-20.9C4,112.3,0,126.9,0,141.8c0,46.4,37.6,84,84,84
	c28,0,54.2-14,69.8-37.3c2.4-3.6,4.6-7.4,6.4-11.4C170.1,155.6,170.5,130.9,161.3,109z"/>
</svg>
