<?xml version="1.0" encoding="iso-8859-1"?>
<!-- Generator: Adobe Illustrator 18.1.1, SVG Export Plug-In . SVG Version: 6.00 Build 0)  -->
<svg version="1.1" id="Capa_1" xmlns="http://www.w3.org/2000/svg" xmlns:xlink="http://www.w3.org/1999/xlink" x="0px" y="0px"
	 viewBox="0 0 48.606 48.606" style="enable-background:new 0 0 48.606 48.606;" xml:space="preserve">
<g>
	<g>
		<g>
			<path style="fill:#010002;" d="M43.935,36.741L43.935,36.741c-1.041,0-2.063-0.392-2.878-1.1l-8.319-7.232
				c-1.139-0.99-1.792-2.487-1.792-4.105c0-1.617,0.653-3.112,1.79-4.103l8.322-7.235c1.434-1.244,3.526-1.433,5.121-0.462
				c1.497,0.91,2.427,2.66,2.427,4.566v14.469c0,1.909-0.931,3.659-2.428,4.566C45.492,36.521,44.716,36.741,43.935,36.741z
				 M43.936,15.697c-0.15,0-0.281,0.087-0.366,0.16l-8.319,7.234c-0.292,0.254-0.474,0.718-0.474,1.212
				c0,0.495,0.182,0.96,0.475,1.215l8.32,7.232c0.131,0.112,0.374,0.229,0.621,0.079c0.343-0.207,0.582-0.738,0.582-1.291V17.069
				c0-0.552-0.24-1.083-0.584-1.292C44.104,15.724,44.019,15.697,43.936,15.697z"/>
		</g>
		<g>
			<path style="fill:#010002;" d="M26.226,39.276H3.722C1.67,39.276,0,37.606,0,35.555V13.051C0,10.999,1.67,9.33,3.722,9.33h22.504
				c2.052,0,3.721,1.669,3.721,3.721v22.503C29.947,37.606,28.278,39.276,26.226,39.276z M3.832,35.445h22.284V13.161H3.832V35.445z
				"/>
		</g>
	</g>
</g>
<g>
</g>
<g>
</g>
<g>
</g>
<g>
</g>
<g>
</g>
<g>
</g>
<g>
</g>
<g>
</g>
<g>
</g>
<g>
</g>
<g>
</g>
<g>
</g>
<g>
</g>
<g>
</g>
<g>
</g>
</svg>
