<?xml version="1.0" encoding="utf-8"?>
<!-- Generator: Adobe Illustrator 23.0.1, SVG Export Plug-In . SVG Version: 6.00 Build 0)  -->
<svg version="1.1" id="Layer_1" xmlns="http://www.w3.org/2000/svg" xmlns:xlink="http://www.w3.org/1999/xlink" x="0px" y="0px"
	 viewBox="0 0 96 96" style="enable-background:new 0 0 96 96;" xml:space="preserve">
<g>
	<path fill="#fff" d="M86,0H10C4.5,0,0,4.5,0,10v76c0,5.5,4.5,10,10,10h76c5.5,0,10-4.5,10-10V10C96,4.5,91.5,0,86,0z M91.2,86
		c0,2.9-2.3,5.2-5.2,5.2H10c-2.9,0-5.2-2.3-5.2-5.2V10c0-2.9,2.3-5.2,5.2-5.2h76c2.9,0,5.2,2.3,5.2,5.2V86z"/>
	<rect fill="#fff" x="18.4" y="36.1" width="4.8" height="42.4"/>
	<rect fill="#fff" x="37.3" y="12.6" width="4.8" height="65.8"/>
	<rect fill="#fff" x="56.1" y="26.2" width="4.8" height="52.3"/>
	<rect fill="#fff" x="74.9" y="44.1" width="4.8" height="34.4"/>
</g>
</svg>
