<?xml version="1.0" encoding="utf-8"?>
<!-- Generator: Adobe Illustrator 23.0.1, SVG Export Plug-In . SVG Version: 6.00 Build 0)  -->
<svg version="1.1" id="Layer_1" xmlns="http://www.w3.org/2000/svg" xmlns:xlink="http://www.w3.org/1999/xlink" x="0px" y="0px"
	 viewBox="0 0 96 96" style="enable-background:new 0 0 96 96;" xml:space="preserve">
<path fill="#fff" d="M71,36v-4.5c0-7.3-5.9-13.1-13.1-13.1H13.1C5.9,18.4,0,24.2,0,31.5v33c0,7.3,5.9,13.1,13.1,13.1h44.8
	c7.2,0,13.1-5.9,13.1-13.1v-2.7l25,15.5V18.4L71,36z M90.9,68.1L71,55.7l-2.6-1.6l-2.6-1.6v6.1v5.9c0,4.4-3.6,8-8,8H13.1
	c-4.4,0-8-3.6-8-8v-33c0-4.4,3.6-8,8-8h44.8c4.4,0,8,3.6,8,8v8.1v6.3l2.6-1.8l2.6-1.8l19.9-14.1V68.1z"/>
</svg>
